<?xml version="1.0" encoding="iso-8859-1"?>
<!-- Generator: Adobe Illustrator 19.0.0, SVG Export Plug-In . SVG Version: 6.00 Build 0)  -->
<svg version="1.1" id="Capa_1" xmlns="http://www.w3.org/2000/svg" xmlns:xlink="http://www.w3.org/1999/xlink" x="0px" y="0px"
	 viewBox="0 0 512 512" style="enable-background:new 0 0 512 512;" xml:space="preserve">
<g>
	<g>
		<path d="M316,347H196c-4.142,0-7.5,3.358-7.5,7.5v120c0,4.142,3.358,7.5,7.5,7.5h120c4.143,0,7.5-3.358,7.5-7.5v-120
			C323.5,350.358,320.143,347,316,347z M308.5,467h-105V362h105V467z"/>
	</g>
</g>
<g>
	<g>
		<path d="M504.5,75c4.143,0,7.5-3.358,7.5-7.5v-60c0-4.142-3.357-7.5-7.5-7.5H7.5C3.358,0,0,3.358,0,7.5v60
			C0,71.642,3.358,75,7.5,75H20v302H7.5c-4.142,0-7.5,3.358-7.5,7.5c0,4.142,3.358,7.5,7.5,7.5h151v112.5c0,4.142,3.358,7.5,7.5,7.5
			h180c4.143,0,7.5-3.358,7.5-7.5V392h151c4.143,0,7.5-3.358,7.5-7.5c0-4.142-3.357-7.5-7.5-7.5H492V75H504.5z M226,317
			c-4.142,0-7.5,3.358-7.5,7.5c0,4.142,3.358,7.5,7.5,7.5h112.5v165h-165V332H196c4.142,0,7.5-3.358,7.5-7.5
			c0-4.142-3.358-7.5-7.5-7.5h-52.5v-45h225v45H226z M237.292,115c2.502,0,4.84-1.248,6.232-3.328
			C246.321,107.494,250.985,105,256,105s9.68,2.495,12.477,6.673c1.393,2.079,3.73,3.327,6.232,3.327H293.5v12.5
			c0,20.678-16.822,37.5-37.5,37.5c-20.678,0-37.5-16.822-37.5-37.5V115H237.292z M218.5,100v-2.5c0-20.678,16.822-37.5,37.5-37.5
			s37.5,16.822,37.5,37.5v2.5h-15.139c-5.653-6.325-13.747-10-22.361-10c-8.615,0-16.708,3.675-22.361,10H218.5z M293.5,192.5V257
			h-30v-77H281C287.893,180,293.5,185.607,293.5,192.5z M231,180h17.5v77h-30v-64.5C218.5,185.607,224.107,180,231,180z M308.5,257
			v-55.71c8.729,3.096,15,11.433,15,21.21V257H308.5z M477,377H353.5v-45H376c4.143,0,7.5-3.358,7.5-7.5V272h2.5
			c4.143,0,7.5-3.358,7.5-7.5c0-4.142-3.357-7.5-7.5-7.5h-47.5v-34.5c0-18.417-13.349-33.765-30.878-36.903
			c-2.245-8.651-8.608-15.657-16.861-18.801c10.869-9.626,17.739-23.67,17.739-39.296v-30c0-8.048-1.825-15.676-5.076-22.5H477V377z
			 M292.693,60C283.22,50.73,270.269,45,256,45c-28.949,0-52.5,23.551-52.5,52.5v30c0,15.626,6.87,29.67,17.739,39.296
			c-7.974,3.039-14.179,9.684-16.614,17.933c-42.52-3.268-76.125-38.886-76.125-82.229c0-4.142-3.358-7.5-7.5-7.5
			c-4.142,0-7.5,3.358-7.5,7.5c0,51.239,39.729,93.372,90,97.214V257H126c-4.142,0-7.5,3.358-7.5,7.5c0,4.142,3.358,7.5,7.5,7.5h2.5
			v52.5c0,4.142,3.358,7.5,7.5,7.5h22.5v45H35V75h152.269c4.142,0,7.5-3.358,7.5-7.5c0-4.142-3.358-7.5-7.5-7.5H15V15h482v45
			H292.693z"/>
	</g>
</g>
<g>
	<g>
		<path d="M474.5,30h-15c-4.142,0-7.5,3.358-7.5,7.5c0,4.142,3.357,7.5,7.5,7.5h15c4.142,0,7.5-3.358,7.5-7.5
			C482,33.357,478.643,30,474.5,30z"/>
	</g>
</g>
<g>
</g>
<g>
</g>
<g>
</g>
<g>
</g>
<g>
</g>
<g>
</g>
<g>
</g>
<g>
</g>
<g>
</g>
<g>
</g>
<g>
</g>
<g>
</g>
<g>
</g>
<g>
</g>
<g>
</g>
</svg>
