<?xml version="1.0" encoding="iso-8859-1"?>
<!-- Generator: Adobe Illustrator 19.0.0, SVG Export Plug-In . SVG Version: 6.00 Build 0)  -->
<svg version="1.1" id="Capa_1" xmlns="http://www.w3.org/2000/svg" xmlns:xlink="http://www.w3.org/1999/xlink" x="0px" y="0px"
	 viewBox="0 0 496 496" style="enable-background:new 0 0 496 496;" xml:space="preserve">
<g>
	<g>
		<g>
			<path d="M168,448h64v-48h48v-64h-48v-48h-64v48h-48v64h48V448z M136,384v-32h48v-48h32v48h48v32h-48v48h-32v-48H136z"/>
			<path d="M472,0c-13.255,0-24,10.745-24,24v16c0.035,9.987,6.252,18.908,15.608,22.4C460.33,90.642,436.431,111.958,408,112h-80
				c-28.431-0.042-52.33-21.358-55.608-49.6C281.748,58.908,287.965,49.987,288,40V24c0-13.255-10.745-24-24-24s-24,10.745-24,24v16
				c0.048,10.26,6.613,19.356,16.336,22.632C259.794,99.641,290.83,127.951,328,128h32v16c0.04,35.33,28.67,63.96,64,64
				c26.499,0.026,47.974,21.501,48,48v16c-0.026,26.499-21.501,47.974-48,48h-24v-80h-80v-40c-0.035-30.913-25.087-55.965-56-56h-96
				c-19.268-0.036-35.773-13.803-39.264-32.752c30.523-4.847,51.338-33.52,46.491-64.044c-4.847-30.523-33.52-51.338-64.044-46.491
				C80.66,5.56,59.845,34.233,64.692,64.757c3.88,24.431,23.34,43.417,47.86,46.691C116.299,139.217,139.979,159.952,168,160h96
				c22.08,0.026,39.974,17.92,40,40v40h-32v-48h-48v16h-48v-16h-48v48H0v256h400V336h24c35.33-0.04,63.96-28.67,64-64v-16
				c-0.04-35.33-28.67-63.96-64-64c-26.499-0.026-47.974-21.501-48-48v-16h32c37.17-0.049,68.207-28.359,71.664-65.368
				C489.387,59.356,495.952,50.26,496,40V24C496,10.745,485.255,0,472,0z M272,40c0,4.418-3.582,8-8,8s-8-3.582-8-8V24
				c0-4.418,3.582-8,8-8s8,3.582,8,8V40z M120,96c-22.08-0.026-39.974-17.92-40-40c0-22.091,17.909-40,40-40s40,17.909,40,40
				S142.091,96,120,96z M144,208h16v16h80v-16h16v32H144V208z M32,480H16V256h16V480z M384,480H48V256h336V480z M480,40
				c0,4.418-3.582,8-8,8s-8-3.582-8-8V24c0-4.418,3.582-8,8-8s8,3.582,8,8V40z"/>
			<path d="M96,56c0,13.255,10.745,24,24,24V64c-4.418,0-8-3.582-8-8s3.582-8,8-8V32C106.745,32,96,42.745,96,56z"/>
		</g>
	</g>
</g>
<g>
</g>
<g>
</g>
<g>
</g>
<g>
</g>
<g>
</g>
<g>
</g>
<g>
</g>
<g>
</g>
<g>
</g>
<g>
</g>
<g>
</g>
<g>
</g>
<g>
</g>
<g>
</g>
<g>
</g>
</svg>
