<?xml version="1.0" encoding="iso-8859-1"?>
<!-- Generator: Adobe Illustrator 18.0.0, SVG Export Plug-In . SVG Version: 6.00 Build 0)  -->
<!DOCTYPE svg PUBLIC "-//W3C//DTD SVG 1.1//EN" "http://www.w3.org/Graphics/SVG/1.1/DTD/svg11.dtd">
<svg version="1.1" id="Capa_1" xmlns="http://www.w3.org/2000/svg" xmlns:xlink="http://www.w3.org/1999/xlink" x="0px" y="0px"
	 viewBox="0 0 491.477 491.477" style="enable-background:new 0 0 491.477 491.477;" xml:space="preserve">
<g>
	<path d="M334.199,110.156c0.371-6.254-1.639-12.452-5.582-17.303c15.008-8.925,24.418-25.162,24.418-42.916
		C353.035,22.402,330.634,0,303.1,0c-27.535,0-49.938,22.402-49.938,49.938c0,21.523,13.924,40.508,33.877,47.29
		c-0.066,0.129-0.141,0.251-0.204,0.381l-2.55,5.183c-18.23,7.56-30.361,25.6-30.361,45.435v6.328h-32.108
		c-7.969,0-14.451,6.483-14.451,14.452c0,7.826,6.256,14.203,14.027,14.431v63.049c0,10.782,8.771,19.554,19.553,19.554h12.953
		v4.064L148.652,370.495c-13.172,12.566-13.666,33.509-1.101,46.684c6.479,6.791,15.183,10.212,23.9,10.212
		c8.193,0,16.399-3.022,22.782-9.11l59.663-56.911v118.377h-4.677c-2.348,0-4.25,1.902-4.25,4.25c0,2.348,1.902,4.25,4.25,4.25
		h17.854c2.348,0,4.25-1.902,4.25-4.25c0-2.348-1.902-4.25-4.25-4.25h-4.677V353.261l7.682-7.327l0.001,112.524
		c0,18.206,14.813,33.019,33.02,33.019c18.206,0,33.018-14.813,33.018-33.019V314.079c10.287-9.325,16.158-22.478,16.158-36.417
		V148.226C352.275,133.5,345.557,119.457,334.199,110.156z M262.424,240.224c7.093-1.723,13.127-6.464,16.46-13.236l7.545-15.336
		v34.834c0,6.095-4.958,11.054-11.053,11.054h-12.952V240.224z M271.257,223.234c-2.798,5.685-8.474,9.216-14.813,9.216
		c-2.529,0-4.975-0.572-7.265-1.699c-8.158-4.015-11.53-13.917-7.517-22.075l52.799-107.315c2.795-5.684,8.471-9.214,14.812-9.214
		c2.53,0,4.974,0.571,7.264,1.698c8.158,4.016,11.529,13.918,7.515,22.076L271.257,223.234z M261.662,49.938
		c0-22.849,18.589-41.438,41.438-41.438c22.848,0,41.436,18.589,41.436,41.438c0,15.727-8.898,30.021-22.85,37.029
		c-0.455-0.262-0.918-0.514-1.396-0.749c-3.468-1.706-7.175-2.571-11.017-2.571c-6.324,0-12.203,2.331-16.697,6.375
		C274.535,85.298,261.662,68.793,261.662,49.938z M277.444,116.695l-15,30.488C262.756,135.191,268.411,124.084,277.444,116.695z
		 M215.864,169.006c0-3.282,2.67-5.952,5.951-5.952h32.82l-5.856,11.904h-26.964C218.534,174.958,215.864,172.288,215.864,169.006z
		 M229.892,246.485v-63.027h14.706l-10.561,21.466c-6.083,12.362-0.973,27.37,11.391,33.454c2.703,1.33,5.553,2.143,8.497,2.439
		v16.723h-12.979C234.85,257.539,229.892,252.58,229.892,246.485z M252.505,350.95l-15.383-7.349l3.654-49.234l13.121-12.516v67.771
		L252.505,350.95z M215.363,386.379l-44.975-24.871l28.196-26.896l47.34,22.614L215.363,386.379z M205.165,328.336l26.438-25.219
		l-2.713,36.552L205.165,328.336z M154.52,376.646l9.424-8.989l5.781,3.197l-5.865,46.845c-3.747-1.212-7.253-3.343-10.157-6.387
		C144.372,401.528,144.738,385.977,154.52,376.646z M188.367,412.13c-4.524,4.316-10.283,6.553-16.089,6.747l5.458-43.594
		l31.182,17.244L188.367,412.13z M262.398,341.514v-36.259c2.178,3.206,4.753,6.165,7.681,8.82v20.111L262.398,341.514z
		 M327.617,458.458c0,9.55-5.491,17.836-13.478,21.882v-71.212c0-2.348-1.902-4.25-4.25-4.25c-2.348,0-4.25,1.902-4.25,4.25v73.718
		c-0.835,0.086-1.682,0.131-2.539,0.131c-13.521,0-24.52-10.999-24.52-24.519l-0.002-165.898c0-13.521,11-24.521,24.521-24.521
		c6.549,0,12.705,2.55,17.336,7.182c4.631,4.631,7.182,10.789,7.182,17.339V458.458z M343.775,277.662
		c0,8.626-2.727,16.885-7.658,23.732v-8.835c0-8.82-3.435-17.112-9.671-23.35c-6.236-6.236-14.528-9.672-23.347-9.671
		c-18.208,0-33.021,14.813-33.021,33.021v8.829c-4.929-6.846-7.654-15.103-7.654-23.726v-11.624h12.952
		c10.781,0,19.553-8.771,19.553-19.554v-52.111l36.75-74.7c0.039-0.079,0.072-0.16,0.11-0.239
		c7.582,7.58,11.986,17.96,11.986,28.791V277.662z"/>
	<path d="M326.639,157.141v77.996c0,2.348,1.902,4.25,4.25,4.25c2.348,0,4.25-1.902,4.25-4.25v-77.996c0-2.348-1.902-4.25-4.25-4.25
		C328.541,152.891,326.639,154.793,326.639,157.141z"/>
</g>
<g>
</g>
<g>
</g>
<g>
</g>
<g>
</g>
<g>
</g>
<g>
</g>
<g>
</g>
<g>
</g>
<g>
</g>
<g>
</g>
<g>
</g>
<g>
</g>
<g>
</g>
<g>
</g>
<g>
</g>
</svg>
