<?xml version="1.0" encoding="iso-8859-1"?>
<!-- Generator: Adobe Illustrator 19.0.0, SVG Export Plug-In . SVG Version: 6.00 Build 0)  -->
<svg version="1.1" id="Capa_1" xmlns="http://www.w3.org/2000/svg" xmlns:xlink="http://www.w3.org/1999/xlink" x="0px" y="0px"
	 viewBox="0 0 512 512" style="enable-background:new 0 0 512 512;" xml:space="preserve">
<g>
	<g>
		<g>
			<path d="M136.4,96c4.8,0,8-3.2,8-8s-3.2-8-8-8h-8c-4.8,0-8,3.2-8,8s3.2,8,8,8H136.4z"/>
			<path d="M168.4,96c4.8,0,8-3.2,8-8s-3.2-8-8-8h-8c-4.8,0-8,3.2-8,8s3.2,8,8,8H168.4z"/>
			<path d="M96.4,96h8c4.8,0,8-3.2,8-8s-3.2-8-8-8h-8c-4.8,0-8,3.2-8,8S91.6,96,96.4,96z"/>
			<path d="M128.4,464c-4.8,0-8,3.2-8,8s3.2,8,8,8h8c4.8,0,8-3.2,8-8s-3.2-8-8-8H128.4z"/>
			<path d="M160.4,480h8c4.8,0,8-3.2,8-8s-3.2-8-8-8h-8c-4.8,0-8,3.2-8,8S155.6,480,160.4,480z"/>
			<path d="M96.4,464c-4.8,0-8,3.2-8,8s3.2,8,8,8h8c4.8,0,8-3.2,8-8s-3.2-8-8-8H96.4z"/>
			<path d="M477.2,188l-33.6-33.6c-3.2-3.2-8-3.2-11.2,0l-36.8,36.8l-24-4.8c-2.4-0.8-5.6,0-7.2,2.4L313.2,240
				c-3.2,3.2-3.2,8,0,11.2c1.6,1.6,4,2.4,5.6,2.4c1.6,0,4-0.8,5.6-2.4l48-48l9.6,1.6L218,368l-27.2,16.8c-2.4,1.6-3.2,3.2-4,5.6
				l-5.6,51.2c0,0.8,0,1.6,0,2.4v0.8c0,0.8,0.8,2.4,1.6,3.2c0.8,0.8,1.6,1.6,2.4,1.6c0.8,0,2.4,0.8,3.2,0.8h0.8l51.2-5.6
				c2.4,0,4.8-1.6,5.6-4l16.8-27.2l214.4-214.4c1.6-1.6,2.4-3.2,2.4-5.6S478.8,189.6,477.2,188z M235.6,429.6l-24,2.4l12-12
				c3.2-3.2,3.2-8,0-11.2s-8-3.2-11.2,0l-12,12l2.4-24l19.2-12l12.8,12.8l12.8,12.8L235.6,429.6z M257.2,397.6L246,386.4l-11.2-11.2
				l204-204l22.4,22.4L257.2,397.6z"/>
			<path d="M408.4,408c-4.8,0-8,3.2-8,8v80h-352V16h272v72c0,4.8,3.2,8,8,8h72v64c0,4.8,3.2,8,8,8s8-3.2,8-8V88
				c0-2.4-1.6-4.8-3.2-6.4L334.8,3.2c-1.6-1.6-4-3.2-6.4-3.2c-0.8,0-0.8,0-1.6,0H40.4c-4.8,0-8,4-8,8v496c0,4.8,3.2,8,8,8h368
				c4.8,0,8-3.2,8-8v-88C416.4,411.2,413.2,408,408.4,408z M336.4,27.2L389.2,80h-52.8V27.2z"/>
			<path d="M408.4,368c-4.8,0-8,3.2-8,8v8c0,4.8,3.2,8,8,8s8-3.2,8-8v-8C416.4,371.2,413.2,368,408.4,368z"/>
			<path d="M408.4,288c-4.8,0-8,3.2-8,8v48c0,4.8,3.2,8,8,8s8-3.2,8-8v-48C416.4,291.2,413.2,288,408.4,288z"/>
			<path d="M168.4,440c0-4.8-3.2-8-8-8h-64c-4.8,0-8,3.2-8,8s3.2,8,8,8h64C165.2,448,168.4,444.8,168.4,440z"/>
			<path d="M320.4,464c-4.8,0-8,3.2-8,8s3.2,8,8,8h8c4.8,0,8-3.2,8-8s-3.2-8-8-8H320.4z"/>
			<path d="M360.4,464h-8c-4.8,0-8,3.2-8,8s3.2,8,8,8h8c4.8,0,8-3.2,8-8S365.2,464,360.4,464z"/>
			<path d="M280.4,472c0,4.8,3.2,8,8,8h8c4.8,0,8-3.2,8-8s-3.2-8-8-8h-8C283.6,464,280.4,467.2,280.4,472z"/>
			<path d="M360.4,432h-64c-4.8,0-8,3.2-8,8s3.2,8,8,8h64c4.8,0,8-3.2,8-8S365.2,432,360.4,432z"/>
			<path d="M187.6,138.4c-3.2-3.2-8-3.2-11.2,0l-31.2,32.8l-8-9.6c-2.4-3.2-8-4-11.2-0.8c-3.2,2.4-4,8-0.8,11.2l13.6,16.8
				c1.6,1.6,4,3.2,5.6,3.2c2.4,0,4-0.8,5.6-2.4l37.6-39.2C190.8,146.4,190.8,141.6,187.6,138.4z"/>
			<path d="M187.6,234.4c-3.2-3.2-8-3.2-11.2,0l-31.2,32.8l-8-9.6c-2.4-3.2-8-4-11.2-0.8c-3.2,2.4-4,8-0.8,11.2l13.6,16.8
				c1.6,1.6,4,3.2,5.6,3.2c2.4,0,4-0.8,5.6-2.4l37.6-39.2C190.8,242.4,190.8,237.6,187.6,234.4z"/>
			<path d="M208.4,56c0-4.8-3.2-8-8-8h-104c-4.8,0-8,3.2-8,8s3.2,8,8,8h104C205.2,64,208.4,60.8,208.4,56z"/>
			<path d="M360.4,160c0-4.8-3.2-8-8-8h-128c-4.8,0-8,3.2-8,8s3.2,8,8,8h128C357.2,168,360.4,164.8,360.4,160z"/>
			<path d="M320.4,184c0-4.8-3.2-8-8-8h-88c-4.8,0-8,3.2-8,8s3.2,8,8,8h88C317.2,192,320.4,188.8,320.4,184z"/>
			<path d="M296.4,256c0-4.8-3.2-8-8-8h-64c-4.8,0-8,3.2-8,8s3.2,8,8,8h64C293.2,264,296.4,260.8,296.4,256z"/>
			<path d="M224.4,272c-4.8,0-8,3.2-8,8s3.2,8,8,8h48c4.8,0,8-3.2,8-8s-3.2-8-8-8H224.4z"/>
		</g>
	</g>
</g>
<g>
</g>
<g>
</g>
<g>
</g>
<g>
</g>
<g>
</g>
<g>
</g>
<g>
</g>
<g>
</g>
<g>
</g>
<g>
</g>
<g>
</g>
<g>
</g>
<g>
</g>
<g>
</g>
<g>
</g>
</svg>
